#!OML:ASF X:\für Bonn\!DataBase\2005_08_12_Daniel\c3d\Daniel.ASF
:FULLY-SPECIFIED
:DEGREES
153
root -3.0788 16.0352 -2.80952 322.324 -81.3142 -334.503
lowerback 28.3225 -3.49707 -1.4323
upperback 2.27331 -5.62328 -2.57585
thorax -13.3155 -2.65949 0.0685738
lowerneck 0.929283 1.85352 -4.7668
upperneck 2.64079 2.41751 0.74696
head 0.588803 1.15804 1.02548
rclavicle 5.56597e-015 4.31363e-014
rhumerus 62.22 -0.36875 -100.08
rradius 7.04727
rwrist 67.9361
rhand -19.6539 10.2094
rfingers 7.12502
rthumb 6.67389 -19.6654
lclavicle 5.56597e-015 4.31363e-014
lhumerus 63.206 0.847594 94.2277
lradius 10.1185
lwrist -64.6424
lhand -15.0484 4.38801
lfingers 7.12502
lthumb 11.1181 34.0735
rfemur -11.5159 -17.8963 4.48281
rtibia 57.2305
rfoot -24.108 10.866
rtoes -10.3849
lfemur -19.3543 4.95496 -16.9234
ltibia 56.3285
lfoot -21.8568 -19.4836
ltoes 3.12254
154
root -3.09707 16.1476 -2.81032 322.235 -81.2731 -334.111
lowerback 27.7796 -3.48537 -1.50284
upperback 2.11759 -5.61214 -2.59509
thorax -13.2052 -2.65077 0.0549024
lowerneck 1.0509 1.85548 -4.76234
upperneck 2.77298 2.41276 0.732771
head 0.609634 1.15255 1.01991
rclavicle -7.34012e-014 -3.29983e-014
rhumerus 62.0346 -0.313833 -100.041
rradius 6.94831
rwrist 67.873
rhand -19.5403 10.2676
rfingers 7.12502
rthumb 6.78356 -19.6037
lclavicle -7.34012e-014 -3.29983e-014
lhumerus 62.931 0.952287 94.4206
lradius 10.0101
lwrist -64.7357
lhand -15.1538 4.35762
lfingers 7.12502
lthumb 11.0164 34.0485
rfemur -10.6703 -17.053 4.93599
rtibia 55.1881
rfoot -24.2641 9.66505
rtoes -10.7694
lfemur -18.537 4.13172 -17.2541
ltibia 54.537
lfoot -21.7096 -18.2586
ltoes 2.69003
155
root -3.11558 16.254 -2.81176 322.2 -81.2332 -333.791
lowerback 27.2538 -3.48237 -1.58856
upperback 1.96314 -5.615 -2.60013
thorax -13.0974 -2.64697 0.0722372
lowerneck 1.12211 1.87749 -4.82823
upperneck 2.9463 2.436 0.787083
head 0.649416 1.16018 1.04895
rclavicle -1.14301e-015 -5.76476e-015
rhumerus 61.8238 -0.2083 -100.011
rradius 6.88893
rwrist 67.7471
rhand -19.3721 10.3351
rfingers 7.12502
rthumb 6.94596 -19.5309
lclavicle -1.14301e-015 -5.76476e-015
lhumerus 62.6777 1.02609 94.5072
lradius 9.89387
lwrist -64.7144
lhand -15.1668 4.35239
lfingers 7.12502
lthumb 11.0039 34.044
rfemur -9.82866 -16.1431 5.39857
rtibia 53.187
rfoot -24.4275 8.42665
rtoes -11.0951
lfemur -17.7195 3.25509 -17.5659
ltibia 52.7856
lfoot -21.562 -17.0399
ltoes 2.26589
156
root -3.1354 16.3537 -2.81344 322.039 -81.1982 -333.36
lowerback 26.7262 -3.46223 -1.68024
upperback 1.81448 -5.59865 -2.61698
thorax -12.9808 -2.63517 0.0719451
lowerneck 1.17931 1.88271 -4.86096
upperneck 3.12295 2.43808 0.819798
head 0.693793 1.15734 1.06579
rclavicle 5.01931e-015 4.17448e-015
rhumerus 61.566 -0.157556 -99.9703
rradius 6.91357
rwrist 67.6162
rhand -19.0822 10.4035
rfingers 7.12502
rthumb 7.2258 -19.4531
lclavicle 5.01931e-015 4.17448e-015
lhumerus 62.4176 1.07383 94.5908
lradius 9.78971
lwrist -64.5972
lhand -15.1348 4.36313
lfingers 7.12502
lthumb 11.0348 34.0531
rfemur -8.97968 -15.2075 5.8389
rtibia 51.2241
rfoot -24.6076 7.16022
rtoes -11.4744
lfemur -16.9075 2.37935 -17.8742
ltibia 51.088
lfoot -21.4195 -15.8525
ltoes 1.979
157
root -3.15568 16.4477 -2.81528 321.908 -81.1569 -332.941
lowerback 26.1723 -3.45284 -1.77931
upperback 1.65725 -5.59648 -2.63182
thorax -12.8572 -2.62946 0.0819985
lowerneck 1.20806 1.89439 -4.87031
upperneck 3.35112 2.45098 0.815238
head 0.759302 1.15877 1.06782
rclavicle 9.98893e-015 7.95139e-015
rhumerus 61.2369 -0.102695 -99.9294
rradius 7.03339
rwrist 67.4771
rhand -18.727 10.4963
rfingers 7.12502
rthumb 7.5687 -19.3483
lclavicle 9.98893e-015 7.95139e-015
lhumerus 62.1362 1.13963 94.6694
lradius 9.74758
lwrist -64.4867
lhand -15.0612 4.32468
lfingers 7.12502
lthumb 11.1058 34.0108
rfemur -8.17251 -14.2196 6.28358
rtibia 49.3112
rfoot -24.8193 5.86146
rtoes -11.9587
lfemur -16.1524 1.44186 -18.1846
ltibia 49.4422
lfoot -21.2972 -14.62
ltoes 1.65378
158
root -3.17657 16.5357 -2.81713 321.787 -81.1165 -332.536
lowerback 25.6196 -3.43621 -1.87182
upperback 1.50011 -5.58239 -2.64757
thorax -12.7329 -2.61891 0.0829529
lowerneck 1.25143 1.90236 -4.8969
upperneck 3.57013 2.45686 0.858251
head 0.81918 1.15705 1.08757
rclavicle 1.758e-014 -5.96354e-016
rhumerus 60.8471 -0.0660976 -99.884
rradius 7.2364
rwrist 67.3129
rhand -18.385 10.5885
rfingers 7.12502
rthumb 7.89873 -19.2439
lclavicle 1.758e-014 -5.96354e-016
lhumerus 61.851 1.18213 94.7576
lradius 9.76739
lwrist -64.411
lhand -14.8973 4.32229
lfingers 7.12502
lthumb 11.2638 33.9999
rfemur -7.37947 -13.1689 6.73482
rtibia 47.4467
rfoot -25.04 4.52362
rtoes -12.2956
lfemur -15.4156 0.469079 -18.4904
ltibia 47.8482
lfoot -21.1813 -13.3918
ltoes 1.37939
159
root -3.19697 16.6163 -2.81927 321.661 -81.0737 -332.134
lowerback 25.0701 -3.43157 -1.96848
upperback 1.34595 -5.58533 -2.66804
thorax -12.6052 -2.61643 0.0870558
lowerneck 1.31269 1.91753 -4.88594
upperneck 3.78595 2.4723 0.848521
head 0.875777 1.15991 1.08401
rclavicle 2.26863e-014 1.61016e-014
rhumerus 60.3943 -0.0343298 -99.8442
rradius 7.54193
rwrist 67.1702
rhand -18.0528 10.6825
rfingers 7.12502
rthumb 8.21939 -19.1376
lclavicle 2.26863e-014 1.61016e-014
lhumerus 61.6096 1.24899 94.8247
lradius 9.74717
lwrist -64.3349
lhand -14.8105 4.33993
lfingers 7.12502
lthumb 11.3476 34.0129
rfemur -6.60219 -12.0655 7.18792
rtibia 45.635
rfoot -25.3101 3.15393
rtoes -12.7789
lfemur -14.7085 -0.540151 -18.7928
ltibia 46.319
lfoot -21.0847 -12.1444
ltoes 1.14774
160
root -3.21831 16.6925 -2.82266 321.479 -81.044 -331.684
lowerback 24.4891 -3.4089 -2.08617
upperback 1.21347 -5.56642 -2.67629
thorax -12.4298 -2.60395 0.106571
lowerneck 1.43506 1.92644 -4.91187
upperneck 3.93907 2.47504 0.852785
head 0.9025 1.157 1.08969
rclavicle -2.70347e-014 -6.95746e-015
rhumerus 59.9258 0.0117726 -99.7942
rradius 7.91638
rwrist 67.0588
rhand -17.7561 10.742
rfingers 7.12502
rthumb 8.50574 -19.0666
lclavicle -2.70347e-014 -6.95746e-015
lhumerus 61.4207 1.28942 94.9234
lradius 9.72253
lwrist -64.325
lhand -14.7706 4.39328
lfingers 7.12502
lthumb 11.386 34.0642
rfemur -5.84079 -10.8479 7.66145
rtibia 43.8692
rfoot -25.6187 1.70012
rtoes -13.2757
lfemur -14.0149 -1.55083 -19.0786
ltibia 44.8402
lfoot -21.0081 -10.9141
ltoes 0.887655
161
root -3.24006 16.7629 -2.82679 321.308 -81.015 -331.255
lowerback 23.9571 -3.39482 -2.20413
upperback 1.0611 -5.56107 -2.69084
thorax -12.3034 -2.59649 0.12723
lowerneck 1.56798 1.94954 -4.91916
upperneck 4.10353 2.49563 0.868737
head 0.930524 1.16306 1.09583
rclavicle -6.29899e-015 7.15625e-015
rhumerus 59.4393 0.0547184 -99.7614
rradius 8.26943
rwrist 66.978
rhand -17.5576 10.8331
rfingers 7.12502
rthumb 8.69724 -18.9677
lclavicle -6.29899e-015 7.15625e-015
lhumerus 61.2033 1.35715 94.9919
lradius 9.70371
lwrist -64.4088
lhand -14.7449 4.45672
lfingers 7.12502
lthumb 11.4108 34.1262
rfemur -5.08108 -9.55592 8.14904
rtibia 42.1598
rfoot -25.9555 0.226283
rtoes -13.6619
lfemur -13.3565 -2.57556 -19.3527
ltibia 43.4375
lfoot -20.9371 -9.67929
ltoes 0.678937
162
root -3.26627 16.8282 -2.83095 321.095 -80.9746 -330.796
lowerback 23.38 -3.37291 -2.33897
upperback 0.941352 -5.54556 -2.69945
thorax -12.1107 -2.58557 0.156946
lowerneck 1.64322 1.95908 -4.93206
upperneck 4.28434 2.50211 0.861904
head 0.974047 1.16153 1.09675
rclavicle -3.17434e-014 -1.5704e-014
rhumerus 59.0287 0.0974576 -99.7064
rradius 8.5987
rwrist 66.8711
rhand -17.4406 10.9127
rfingers 7.12502
rthumb 8.8102 -18.8834
lclavicle -3.17434e-014 -1.5704e-014
lhumerus 61.0623 1.38501 95.0996
lradius 9.61872
lwrist -64.587
lhand -14.8222 4.63446
lfingers 7.12502
lthumb 11.3362 34.3081
rfemur -4.31222 -8.1889 8.63216
rtibia 40.5056
rfoot -26.3486 -1.30018
rtoes -13.9763
lfemur -12.6976 -3.65097 -19.6407
ltibia 42.1018
lfoot -20.9214 -8.42796
ltoes 0.496196
163
root -3.28873 16.8876 -2.83526 320.961 -80.9402 -330.417
lowerback 22.841 -3.35839 -2.44046
upperback 0.812796 -5.53453 -2.72866
thorax -11.9532 -2.57857 0.14891
lowerneck 1.81361 1.96671 -4.88574
upperneck 4.40632 2.50084 0.852607
head 0.983937 1.15788 1.08475
rclavicle 2.70844e-015 -3.71727e-014
rhumerus 58.6568 0.109478 -99.6832
rradius 8.8745
rwrist 66.7638
rhand -17.378 10.9696
rfingers 7.12502
rthumb 8.87058 -18.824
lclavicle 2.70844e-015 -3.71727e-014
lhumerus 60.9044 1.40529 95.1628
lradius 9.55856
lwrist -64.8265
lhand -14.8711 4.79501
lfingers 7.12502
lthumb 11.2891 34.4712
rfemur -3.58923 -6.70367 9.1531
rtibia 38.9258
rfoot -26.8117 -2.91928
rtoes -14.3242
lfemur -12.1061 -4.72285 -19.9053
ltibia 40.8602
lfoot -20.9129 -7.17872
ltoes 0.381944
